<svg xmlns="http://www.w3.org/2000/svg" viewBox="0 0 682 239.75" height="239.75" width="682"><defs><clipPath id="a"><path d="M0 423h600V0H0v423z"/></clipPath></defs><g clip-path="url(#a)" transform="matrix(1.25 0 0 -1.25 -34.072 385.75)"><path d="M309.81 231.877h-11.38c-10.808 0-19.57-8.762-19.57-19.57v-10.115c0-10.808 8.762-19.57 19.57-19.57h11.38c10.809 0 19.57 8.762 19.57 19.57v10.115c0 10.808-8.761 19.57-19.57 19.57m0-9.1c5.774 0 10.47-4.697 10.47-10.47v-10.115c0-5.773-4.696-10.47-10.47-10.47h-11.38c-5.773 0-10.47 4.697-10.47 10.47v10.115c0 5.773 4.697 10.47 10.47 10.47h11.38M262.57 220.246c-.35-.18-.757-.063-.992.252-1.935 2.592-6.303 4.914-11.283 4.914-6.886 0-10.188-2.881-10.188-6.534 0-4.286 5.06-5.48 10.961-6.183 9.202-1.135 17.838-3.4 19.52-12.322 1.736-9.211-5.308-17.833-14.638-18.724-12.534-1.198-22.394 1.055-26.865 11.107a.801.801 0 0 0 .363 1.025l6.353 3.292c.394.204.861.025 1.055-.374 2.384-4.883 7.82-7.051 13.51-7.051 5.831 0 11.313 2.038 11.313 7.378 0 4.638-4.849 6.534-11.384 7.237-10.048 1.195-19.323 3.864-19.323 14.897 0 10.117 9.977 14.263 19.043 14.333 7.413 0 15.088-2.04 18.951-9.052a.798.798 0 0 0-.339-1.08l-6.058-3.115zM340.32 183.403v47.623c0 .43.35.78.781.78h7.642c.431 0 .781-.35.781-.78v-47.623a.781.781 0 0 0-.781-.781h-7.642a.781.781 0 0 0-.781.78M371.935 222.383v-14.177c0-.431.35-.781.781-.781h13.343c5.902 0 8.432 3.935 8.432 7.87s-2.6 7.869-8.432 7.869h-13.343a.781.781 0 0 1-.78-.781m34.29-39.761h-10.678a.785.785 0 0 0-.589.268l-13.867 15.906a.78.78 0 0 1-.588.268h-7.788a.782.782 0 0 1-.78-.782v-14.88a.781.781 0 0 0-.782-.78h-7.712a.781.781 0 0 0-.78.78v47.692c0 .432.35.783.783.783 7.537-.004 15.075-.07 22.614-.07 11.594-.071 17.706-7.8 17.706-16.302 0-6.43-2.809-12.922-11.163-15.16-.569-.152-.8-.83-.409-1.271l14.032-15.82v-.632zM425.379 222.781h-14.037a.781.781 0 0 0-.781.781v7.463c0 .432.35.782.78.782h84.302c.43 0 .78-.35.78-.781v-7.464a.781.781 0 0 0-.78-.78h-59.426a.78.78 0 0 1-.781-.782v-38.598a.781.781 0 0 0-.781-.78h-7.714a.781.781 0 0 0-.781.78V222c0 .431-.35.781-.781.781M549.77 189.38a.798.798 0 0 0-.018-1.138c-4.972-4.6-11.278-6.745-18.101-6.745-18.27 0-25.998 12.578-26.068 25.366-.072 12.858 8.29 25.927 26.068 25.927 6.413 0 12.502-2.335 17.458-6.944a.797.797 0 0 0 .006-1.148l-5.07-4.896a.767.767 0 0 0-1.051-.007c-3.17 2.821-7.288 4.142-11.343 4.142-11.876 0-17.004-8.854-16.934-17.074.07-8.15 4.777-16.653 16.934-16.653 4.05 0 8.606 1.57 11.823 4.473a.768.768 0 0 0 1.07-.017l5.227-5.286z" fill="#fff"/><path d="M469.592 202.858h19.947a.78.78 0 0 1 .78.78v7.08a.78.78 0 0 1-.78.782H460.386a.781.781 0 0 1-.781-.781v-27.316c0-.431.35-.781.78-.781h35.258c.43 0 .78.35.78.78v7.573c0 .432-.35.782-.78.782h-26.051a.78.78 0 0 0-.781.78v9.54c0 .43.35.78.78.78" fill="#fff"/><path d="M51.743 282.442c-.963 0-1.743-.78-1.743-1.743V157.65c0-9.439 7.652-17.09 17.091-17.09h123.05c.962 0 1.743.78 1.743 1.742v124.07c0 8.875-7.196 16.071-16.072 16.071H51.743zm123.284-9.216c4.213 0 7.641-3.428 7.641-7.64v-114.94a.871.871 0 0 0-.872-.872H67.861a8.646 8.646 0 0 0-8.645 8.645v113.935c0 .482.39.872.871.872h114.94" fill="#3ba9db"/><path d="M146.101 250.853a2.619 2.619 0 0 0 2.615-2.606 2.595 2.595 0 0 0-.76-1.852 2.603 2.603 0 0 0-1.847-.772h-.008a2.62 2.62 0 0 0-2.615 2.606 2.62 2.62 0 0 0 2.607 2.624h.008zm-25.065-48.98a2.617 2.617 0 0 0 1.856-4.459 2.6 2.6 0 0 0-1.847-.772h-.008a2.617 2.617 0 0 0-2.615 2.607 2.618 2.618 0 0 0 2.606 2.624h.008zm-17.42-7.277h.017l10.785.034a8.011 8.011 0 0 1 6.563-3.411h.026a7.988 7.988 0 0 1 5.674 2.375 7.98 7.98 0 0 1 2.337 5.688 7.978 7.978 0 0 1-2.374 5.672 7.983 7.983 0 0 1-5.662 2.339h-.026a8.013 8.013 0 0 1-6.569-3.455l-8.359-.027-13.746 19.908 13.618 19.998 33.59.04a8.01 8.01 0 0 1 6.564-3.412h.027c4.431.014 8.025 3.631 8.011 8.062-.015 4.424-3.617 8.012-8.037 8.012h-.026a8.009 8.009 0 0 1-6.568-3.455l-36.017-.048a4.605 4.605 0 0 1-3.789-2.012l-16.76-24.61a4.573 4.573 0 0 1 .017-5.209l16.918-24.503a4.605 4.605 0 0 1 3.786-1.986" fill="#fff"/><path d="M95.79 172.01a2.619 2.619 0 0 0-2.615 2.605 2.595 2.595 0 0 0 .76 1.852 2.603 2.603 0 0 0 1.847.772h.008a2.62 2.62 0 0 0 2.615-2.607 2.62 2.62 0 0 0-2.607-2.623h-.008zm27.782 51.81a2.596 2.596 0 0 0-.759-1.85 2.596 2.596 0 0 0-1.847-.773c-.666.022-1.356.268-1.852.76a2.602 2.602 0 0 0-.772 1.847 2.62 2.62 0 0 0 2.607 2.624h.008a2.618 2.618 0 0 0 2.615-2.608m35.4-21.838l-16.917 24.503a4.61 4.61 0 0 1-3.789 1.986h-.014l-10.785-.034a8.01 8.01 0 0 1-6.564 3.412h-.027c-4.43-.014-8.025-3.63-8.01-8.063a7.983 7.983 0 0 1 2.374-5.672 7.983 7.983 0 0 1 5.662-2.339h.026a8.014 8.014 0 0 1 6.567 3.454l8.361.027 13.747-19.909-13.618-19.998-33.637-.107a8.008 8.008 0 0 1-6.564 3.413h-.027c-4.43-.014-8.025-3.63-8.01-8.063.014-4.423 3.616-8.01 8.036-8.01h.027a8.013 8.013 0 0 1 6.567 3.453l36.063.116a4.607 4.607 0 0 1 3.79 2.011l16.76 24.611a4.575 4.575 0 0 1-.018 5.21" fill="#fff"/></g></svg>